<?xml version="1.0" encoding="iso-8859-1"?>
<!-- Generator: Adobe Illustrator 19.0.0, SVG Export Plug-In . SVG Version: 6.00 Build 0)  -->
<svg version="1.1" id="Capa_1" xmlns="http://www.w3.org/2000/svg" xmlns:xlink="http://www.w3.org/1999/xlink" x="0px" y="0px"
	 viewBox="0 0 448 448" style="enable-background:new 0 0 448 448;" xml:space="preserve">
<circle style="fill:#2196F3;" cx="106.667" cy="127.973" r="106.667"/>
<circle style="fill:#EC407A;" cx="341.333" cy="127.973" r="106.667"/>
<g>
	<path style="fill:#455A64;" d="M32,426.64c-5.891,0-10.667-4.776-10.667-10.667V330.64c0-17.673,14.327-32,32-32H64
		c5.891,0,10.667,4.776,10.667,10.667S69.891,319.973,64,319.973H53.333c-5.891,0-10.667,4.776-10.667,10.667v85.333
		C42.667,421.864,37.891,426.64,32,426.64z"/>
	<path style="fill:#455A64;" d="M64,362.64H10.667C4.776,362.64,0,357.864,0,351.973c0-5.891,4.776-10.667,10.667-10.667H64
		c5.891,0,10.667,4.776,10.667,10.667C74.667,357.864,69.891,362.64,64,362.64z"/>
	<path style="fill:#455A64;" d="M96,426.64c-5.891,0-10.667-4.776-10.667-10.667V309.306c0-5.891,4.776-10.667,10.667-10.667
		c5.891,0,10.667,4.776,10.667,10.667v106.667C106.667,421.864,101.891,426.64,96,426.64z"/>
	<path style="fill:#455A64;" d="M138.667,426.64c-5.891,0-10.667-4.776-10.667-10.667v-64c0-5.891,4.776-10.667,10.667-10.667
		s10.667,4.776,10.667,10.667v64C149.333,421.864,144.558,426.64,138.667,426.64z"/>
	<path style="fill:#455A64;" d="M213.333,426.64c-23.564,0-42.667-19.103-42.667-42.667c0-23.564,19.103-42.667,42.667-42.667
		c14.984-1.372,29.797,4.027,40.384,14.72c3.652,4.624,2.864,11.334-1.76,14.987c-4.624,3.652-11.334,2.865-14.987-1.76l0,0
		c-6.746-5.142-15.203-7.508-23.637-6.613c-11.782,0-21.333,9.551-21.333,21.333c0,11.782,9.551,21.333,21.333,21.333
		c8.846,0.479,17.569-2.239,24.576-7.659c4.234-3.978,10.873-3.836,14.933,0.32c4.066,4.148,4.066,10.786,0,14.933
		C241.907,422.352,227.773,427.267,213.333,426.64z"/>
	<path style="fill:#455A64;" d="M288,426.64c-5.891,0-10.667-4.776-10.667-10.667V309.306c0-5.891,4.776-10.667,10.667-10.667
		c5.891,0,10.667,4.776,10.667,10.667v106.667C298.667,421.864,293.891,426.64,288,426.64z"/>
	<path style="fill:#455A64;" d="M330.667,426.64c-2.831,0.005-5.548-1.115-7.552-3.115l-42.667-42.667
		c-4.17-4.162-4.176-10.915-0.014-15.085c0.499-0.5,1.047-0.95,1.636-1.342l32-21.333c4.901-3.27,11.525-1.947,14.795,2.955
		s1.947,11.525-2.955,14.795l-21.163,14.123l33.451,33.472c4.159,4.172,4.149,10.926-0.024,15.085
		C336.18,425.515,333.482,426.633,330.667,426.64z"/>
	<path style="fill:#455A64;" d="M373.333,426.64c-5.891,0-10.667-4.776-10.667-10.667v-64c0-5.891,4.776-10.667,10.667-10.667
		S384,346.082,384,351.973v64C384,421.864,379.224,426.64,373.333,426.64z"/>
	<path style="fill:#455A64;" d="M373.333,405.306c-5.891,0-10.667-4.776-10.667-10.667c0-29.455,23.878-53.333,53.333-53.333
		c5.891,0,10.667,4.776,10.667,10.667c0,5.891-4.776,10.667-10.667,10.667c-17.673,0-32,14.327-32,32
		C384,400.531,379.224,405.306,373.333,405.306z"/>
	<path style="fill:#455A64;" d="M139.093,319.973c-5.891,0-10.667-4.776-10.667-10.667s4.776-10.667,10.667-10.667h0.213
		c5.891,0,10.667,4.776,10.667,10.667s-4.776,10.667-10.667,10.667H139.093z"/>
</g>
<path d="M106.667,234.64C47.756,234.64,0,186.883,0,127.973S47.756,21.306,106.667,21.306s106.667,47.756,106.667,106.667
	C213.263,186.854,165.548,234.569,106.667,234.64z M106.667,42.64c-47.128,0-85.333,38.205-85.333,85.333
	s38.205,85.333,85.333,85.333S192,175.101,192,127.973S153.795,42.64,106.667,42.64z"/>
<path d="M341.333,234.64c-58.91,0-106.667-47.756-106.667-106.667S282.423,21.306,341.333,21.306S448,69.063,448,127.973
	C447.93,186.854,400.214,234.569,341.333,234.64z M341.333,42.64C294.205,42.64,256,80.845,256,127.973s38.205,85.333,85.333,85.333
	s85.333-38.205,85.333-85.333S388.462,42.64,341.333,42.64z"/>
<path d="M32,426.64c-5.891,0-10.667-4.776-10.667-10.667V330.64c0-17.673,14.327-32,32-32H64c5.891,0,10.667,4.776,10.667,10.667
	S69.891,319.973,64,319.973H53.333c-5.891,0-10.667,4.776-10.667,10.667v85.333C42.667,421.864,37.891,426.64,32,426.64z"/>
<path d="M64,362.64H10.667C4.776,362.64,0,357.864,0,351.973c0-5.891,4.776-10.667,10.667-10.667H64
	c5.891,0,10.667,4.776,10.667,10.667C74.667,357.864,69.891,362.64,64,362.64z"/>
<path d="M96,426.64c-5.891,0-10.667-4.776-10.667-10.667V309.306c0-5.891,4.776-10.667,10.667-10.667
	c5.891,0,10.667,4.776,10.667,10.667v106.667C106.667,421.864,101.891,426.64,96,426.64z"/>
<path d="M138.667,426.64c-5.891,0-10.667-4.776-10.667-10.667v-64c0-5.891,4.776-10.667,10.667-10.667s10.667,4.776,10.667,10.667
	v64C149.333,421.864,144.558,426.64,138.667,426.64z"/>
<path d="M213.333,426.64c-23.564,0-42.667-19.103-42.667-42.667c0-23.564,19.103-42.667,42.667-42.667
	c14.973-1.368,29.775,4.023,40.363,14.699c3.658,4.619,2.88,11.328-1.739,14.987c-4.619,3.658-11.328,2.88-14.987-1.739
	c-6.746-5.142-15.203-7.508-23.637-6.613c-11.782,0-21.333,9.551-21.333,21.333c0,11.782,9.551,21.333,21.333,21.333
	c8.845,0.477,17.568-2.241,24.576-7.659c4.234-3.978,10.873-3.836,14.933,0.32c4.066,4.148,4.066,10.786,0,14.933
	C241.909,422.356,227.774,427.271,213.333,426.64z"/>
<path d="M288,426.64c-5.891,0-10.667-4.776-10.667-10.667V309.306c0-5.891,4.776-10.667,10.667-10.667
	c5.891,0,10.667,4.776,10.667,10.667v106.667C298.667,421.864,293.891,426.64,288,426.64z"/>
<path d="M330.667,426.64c-2.831,0.005-5.548-1.115-7.552-3.115l-42.667-42.667c-4.17-4.162-4.176-10.915-0.014-15.085
	c0.499-0.5,1.047-0.95,1.636-1.342l32-21.333c4.901-3.27,11.525-1.947,14.795,2.955s1.947,11.525-2.955,14.795l-21.184,14.123
	l33.472,33.472c4.159,4.172,4.149,10.926-0.024,15.085C336.18,425.515,333.482,426.633,330.667,426.64z"/>
<path d="M373.333,426.64c-5.891,0-10.667-4.776-10.667-10.667v-64c0-5.891,4.776-10.667,10.667-10.667S384,346.082,384,351.973v64
	C384,421.864,379.224,426.64,373.333,426.64z"/>
<path d="M373.333,405.306c-5.891,0-10.667-4.776-10.667-10.667c0-29.455,23.878-53.333,53.333-53.333
	c5.891,0,10.667,4.776,10.667,10.667c0,5.891-4.776,10.667-10.667,10.667c-17.673,0-32,14.327-32,32
	C384,400.531,379.224,405.306,373.333,405.306z"/>
<path d="M139.093,319.973c-5.891,0-10.667-4.776-10.667-10.667c0-5.85,4.711-10.608,10.56-10.667h0.213
	c5.891,0,10.667,4.776,10.667,10.667s-4.776,10.667-10.667,10.667H139.093z"/>
<g>
</g>
<g>
</g>
<g>
</g>
<g>
</g>
<g>
</g>
<g>
</g>
<g>
</g>
<g>
</g>
<g>
</g>
<g>
</g>
<g>
</g>
<g>
</g>
<g>
</g>
<g>
</g>
<g>
</g>
</svg>
